<svg width="8" height="7" viewBox="0 0 8 7" fill="none" xmlns="http://www.w3.org/2000/svg">
<g opacity="0.9">
<mask id="mask0_8_2190" style="mask-type:alpha" maskUnits="userSpaceOnUse" x="0" y="0" width="8" height="7">
<rect x="0.820801" y="0.107513" width="6.84579" height="6.84579" fill="#D9D9D9"/>
</mask>
<g mask="url(#mask0_8_2190)">
<path d="M4.81425 4.95658H6.24046V3.53038H5.66998V4.3861H4.81425V4.95658ZM2.24708 3.53038H2.81756V2.67465H3.67329V2.10417H2.24708V3.53038ZM1.96184 5.81231C1.80496 5.81231 1.67066 5.75645 1.55894 5.64473C1.44722 5.53301 1.39136 5.39871 1.39136 5.24182V1.81893C1.39136 1.66204 1.44722 1.52774 1.55894 1.41602C1.67066 1.3043 1.80496 1.24844 1.96184 1.24844H6.5257C6.68259 1.24844 6.81689 1.3043 6.92861 1.41602C7.04033 1.52774 7.09619 1.66204 7.09619 1.81893V5.24182C7.09619 5.39871 7.04033 5.53301 6.92861 5.64473C6.81689 5.75645 6.68259 5.81231 6.5257 5.81231H1.96184ZM1.96184 5.24182H6.5257V1.81893H1.96184V5.24182Z" fill="#333333"/>
</g>
</g>
</svg>
