<svg width="26" height="24" viewBox="0 0 26 24" fill="none" xmlns="http://www.w3.org/2000/svg">
<mask id="mask0_8_2281" style="mask-type:alpha" maskUnits="userSpaceOnUse" x="0" y="0" width="26" height="24">
<rect x="0.981567" width="24.1748" height="24" fill="#D9D9D9"/>
</mask>
<g mask="url(#mask0_8_2281)">
<path d="M21.0768 20.9849C18.9112 20.9849 16.8003 20.5066 14.7441 19.5499C12.6872 18.5938 10.8657 17.3298 9.27956 15.7577C7.69276 14.1862 6.41687 12.3816 5.45189 10.3438C4.48624 8.30665 4.00342 6.21529 4.00342 4.0697C4.00342 3.77031 4.10415 3.52082 4.3056 3.32124C4.50706 3.12165 4.75888 3.02185 5.06106 3.02185H9.14056C9.37559 3.02185 9.58544 3.0967 9.77011 3.24639C9.95477 3.39608 10.0639 3.58735 10.0975 3.82021L10.7522 7.31303C10.7858 7.54588 10.7818 7.75778 10.7401 7.94872C10.6978 8.14033 10.6011 8.31098 10.45 8.46067L8.03255 10.9056C8.73764 12.1032 9.61901 13.2259 10.6767 14.2737C11.7343 15.3216 12.9011 16.228 14.177 16.9931L16.5441 14.6479C16.6952 14.4983 16.8926 14.3858 17.1364 14.3106C17.3794 14.2361 17.6185 14.2155 17.8535 14.2488L21.3287 14.9473C21.5637 14.9972 21.7568 15.1093 21.9079 15.2836C22.0589 15.4586 22.1345 15.6625 22.1345 15.8954V19.9371C22.1345 20.2365 22.0338 20.4859 21.8323 20.6855C21.6308 20.8851 21.379 20.9849 21.0768 20.9849Z" fill="#E0970E"/>
</g>
</svg>
