<svg width="7" height="7" viewBox="0 0 7 7" fill="none" xmlns="http://www.w3.org/2000/svg">
<g opacity="0.9" clip-path="url(#clip0_8_2179)">
<path d="M6.2456 3.51604H1.57097V1.32481C1.57075 1.24229 1.58689 1.16055 1.61847 1.08431C1.65005 1.00807 1.69644 0.938853 1.75495 0.880663L1.75982 0.875794C1.85152 0.78423 1.96925 0.723209 2.09693 0.701068C2.22461 0.678926 2.35602 0.696744 2.47319 0.752087C2.36253 0.936076 2.31653 1.15177 2.34251 1.3649C2.36849 1.57803 2.46495 1.77636 2.61657 1.92838L2.74988 2.06169L2.5045 2.30708L2.77994 2.58252L3.02532 2.33714L4.38497 0.977516L4.63035 0.732134L4.3549 0.456684L4.1095 0.702066L3.97619 0.568754C3.81658 0.409589 3.60618 0.311474 3.38166 0.291506C3.15714 0.271538 2.93273 0.330984 2.74753 0.459484C2.55225 0.336156 2.32082 0.282914 2.09128 0.308506C1.86173 0.334097 1.64771 0.436999 1.48438 0.600307L1.47951 0.605177C1.38471 0.69946 1.30955 0.81161 1.25839 0.935136C1.20722 1.05866 1.18106 1.19111 1.18142 1.32481V3.51604H0.79187V3.9056H1.18142V4.27932C1.18141 4.31073 1.18648 4.34192 1.19642 4.37171L1.5588 5.4588C1.57814 5.517 1.61533 5.56763 1.66508 5.60349C1.71483 5.63936 1.77461 5.65863 1.83594 5.65858H1.99298L1.85097 6.14552H2.25674L2.39877 5.65858H4.93208L5.07816 6.14552H5.48476L5.33867 5.65858H5.59103C5.65237 5.65864 5.71217 5.63937 5.76193 5.60351C5.81169 5.56764 5.84888 5.51701 5.86822 5.4588L6.23058 4.37171C6.24052 4.34192 6.24559 4.31073 6.2456 4.27932V3.9056H6.63515V3.51604H6.2456ZM2.89204 0.844204C2.99936 0.737116 3.14478 0.676974 3.29639 0.676974C3.448 0.676974 3.59342 0.737116 3.70074 0.844204L3.83403 0.977516L3.02536 1.78619L2.89204 1.6529C2.78496 1.54558 2.72482 1.40016 2.72482 1.24855C2.72482 1.09694 2.78496 0.951528 2.89204 0.844204ZM5.85605 4.2635L5.52089 5.26903H1.90614L1.57097 4.2635V3.9056H5.85605V4.2635Z" fill="#333333"/>
</g>
<defs>
<clipPath id="clip0_8_2179">
<rect width="6.23284" height="6.23284" fill="white" transform="translate(0.597046 0.107483)"/>
</clipPath>
</defs>
</svg>
