<svg width="8" height="7" viewBox="0 0 8 7" fill="none" xmlns="http://www.w3.org/2000/svg">
<g opacity="0.9">
<path d="M5.04299 1.526C5.24079 1.52597 5.4312 1.60118 5.5756 1.73637C5.71999 1.87156 5.80756 2.05662 5.82053 2.254L5.82209 2.30511V3.09979C5.98908 3.13394 6.14027 3.22189 6.2525 3.35017C6.36474 3.47845 6.43183 3.63998 6.4435 3.81002L6.44537 3.86331V5.73316C6.44545 5.7721 6.43094 5.80966 6.4047 5.83843C6.37847 5.86721 6.34241 5.88512 6.30363 5.88863C6.26485 5.89215 6.22616 5.88102 6.19518 5.85744C6.16419 5.83386 6.14316 5.79953 6.13623 5.76121L6.13373 5.73316V4.95406H1.77075V5.73316C1.77082 5.7721 1.75631 5.80966 1.73008 5.83843C1.70384 5.86721 1.66779 5.88512 1.62901 5.88863C1.59023 5.89215 1.55154 5.88102 1.52055 5.85744C1.48957 5.83386 1.46854 5.79953 1.4616 5.76121L1.45911 5.73316V3.86331C1.45907 3.68371 1.52109 3.5096 1.63467 3.37047C1.74825 3.23133 1.90641 3.13571 2.08239 3.09979V2.30511C2.08236 2.1073 2.15757 1.91689 2.29276 1.7725C2.42795 1.6281 2.61301 1.54054 2.81039 1.52756L2.86149 1.526H5.04299ZM5.66627 3.39585H2.23821C2.12205 3.39585 2.01006 3.43909 1.92404 3.51716C1.83803 3.59522 1.78416 3.70251 1.77293 3.81813L1.77075 3.86331V4.64242H6.13373V3.86331C6.13373 3.74716 6.09049 3.63516 6.01243 3.54915C5.93436 3.46313 5.82707 3.40926 5.71146 3.39803L5.66627 3.39585ZM5.04299 1.83764H2.86149C2.74529 1.83765 2.63325 1.88094 2.54723 1.95906C2.46121 2.03719 2.40737 2.14456 2.39621 2.26023L2.39403 2.30511V3.08421H2.70567V2.92839C2.70567 2.88706 2.72209 2.84743 2.75131 2.81821C2.78053 2.78898 2.82017 2.77257 2.86149 2.77257H3.6406C3.68193 2.77257 3.72156 2.78898 3.75078 2.81821C3.78 2.84743 3.79642 2.88706 3.79642 2.92839V3.08421H4.10806V2.92839C4.10806 2.88706 4.12448 2.84743 4.1537 2.81821C4.18292 2.78898 4.22256 2.77257 4.26388 2.77257H5.04299C5.08431 2.77257 5.12395 2.78898 5.15317 2.81821C5.18239 2.84743 5.19881 2.88706 5.19881 2.92839V3.08421H5.51045V2.30511C5.51045 2.18895 5.46721 2.07695 5.38914 1.99094C5.31108 1.90492 5.20379 1.85105 5.08817 1.83982L5.04299 1.83764Z" fill="#333333"/>
</g>
</svg>
