<svg width="24" height="24" viewBox="0 0 24 24" fill="none" xmlns="http://www.w3.org/2000/svg">
<circle cx="12" cy="12" r="11.75" stroke="url(#paint0_linear_8_2343)" stroke-width="0.5"/>
<mask id="mask0_8_2343" style="mask-type:alpha" maskUnits="userSpaceOnUse" x="4" y="4" width="16" height="16">
<rect x="4" y="4" width="16" height="16" fill="#D9D9D9"/>
</mask>
<g mask="url(#mask0_8_2343)">
<path d="M8.66663 18L7.73329 17.0667L8.78329 15.9667C7.60552 15.8334 6.62496 15.325 5.84163 14.4417C5.05829 13.5584 4.66663 12.5222 4.66663 11.3334C4.66663 10.0334 5.1194 8.93058 6.02496 8.02502C6.93052 7.11946 8.03329 6.66669 9.33329 6.66669H11.3333V8.00002H9.33329C8.41107 8.00002 7.62496 8.32502 6.97496 8.97502C6.32496 9.62502 5.99996 10.4111 5.99996 11.3334C5.99996 12.1334 6.25551 12.8389 6.76663 13.45C7.27774 14.0611 7.92774 14.4445 8.71663 14.6L7.73329 13.6167L8.66663 12.6667L11.3333 15.3334L8.66663 18ZM12.6666 17.3334V12.6667H18.6666V17.3334H12.6666ZM12.6666 11.3334V6.66669H18.6666V11.3334H12.6666ZM14 10H17.3333V8.00002H14V10Z" fill="url(#paint1_linear_8_2343)"/>
</g>
<defs>
<linearGradient id="paint0_linear_8_2343" x1="12" y1="0" x2="12" y2="24" gradientUnits="userSpaceOnUse">
<stop stop-color="#F8C958"/>
<stop offset="1" stop-color="#E0970E"/>
</linearGradient>
<linearGradient id="paint1_linear_8_2343" x1="11.6666" y1="6.66669" x2="11.6666" y2="18" gradientUnits="userSpaceOnUse">
<stop stop-color="#F8C958"/>
<stop offset="1" stop-color="#E0970E"/>
</linearGradient>
</defs>
</svg>
