<svg width="24" height="24" viewBox="0 0 24 24" fill="none" xmlns="http://www.w3.org/2000/svg">
<circle cx="12" cy="12" r="11.75" stroke="url(#paint0_linear_8_2352)" stroke-width="0.5"/>
<mask id="mask0_8_2352" style="mask-type:alpha" maskUnits="userSpaceOnUse" x="4" y="4" width="16" height="16">
<rect x="4" y="4" width="16" height="16" fill="#D9D9D9"/>
</mask>
<g mask="url(#mask0_8_2352)">
<path d="M15.3333 10H16.6666V8.66667H15.3333V10ZM15.3333 12.6667H16.6666V11.3333H15.3333V12.6667ZM15.3333 15.3333H16.6666V14H15.3333V15.3333ZM4.66663 18V11.3333L9.33329 8L14 11.3333V18H10.6666V14H7.99996V18H4.66663ZM15.3333 18V10.6667L10.6666 7.3V6H19.3333V18H15.3333Z" fill="url(#paint1_linear_8_2352)"/>
</g>
<defs>
<linearGradient id="paint0_linear_8_2352" x1="12" y1="0" x2="12" y2="24" gradientUnits="userSpaceOnUse">
<stop stop-color="#F8C958"/>
<stop offset="1" stop-color="#E0970E"/>
</linearGradient>
<linearGradient id="paint1_linear_8_2352" x1="12" y1="6" x2="12" y2="18" gradientUnits="userSpaceOnUse">
<stop stop-color="#F8C958"/>
<stop offset="1" stop-color="#E0970E"/>
</linearGradient>
</defs>
</svg>
