<svg width="24" height="24" viewBox="0 0 24 24" fill="none" xmlns="http://www.w3.org/2000/svg">
<circle cx="12" cy="12" r="11.75" stroke="url(#paint0_linear_8_2334)" stroke-width="0.5"/>
<mask id="mask0_8_2334" style="mask-type:alpha" maskUnits="userSpaceOnUse" x="4" y="4" width="16" height="16">
<rect x="4" y="4" width="16" height="16" fill="#D9D9D9"/>
</mask>
<g mask="url(#mask0_8_2334)">
<path d="M6 18V8.66667H8.66667V6H15.3333V11.3333H18V18H12.6667V15.3333H11.3333V18H6ZM7.33333 16.6667H8.66667V15.3333H7.33333V16.6667ZM7.33333 14H8.66667V12.6667H7.33333V14ZM7.33333 11.3333H8.66667V10H7.33333V11.3333ZM10 14H11.3333V12.6667H10V14ZM10 11.3333H11.3333V10H10V11.3333ZM10 8.66667H11.3333V7.33333H10V8.66667ZM12.6667 14H14V12.6667H12.6667V14ZM12.6667 11.3333H14V10H12.6667V11.3333ZM12.6667 8.66667H14V7.33333H12.6667V8.66667ZM15.3333 16.6667H16.6667V15.3333H15.3333V16.6667ZM15.3333 14H16.6667V12.6667H15.3333V14Z" fill="url(#paint1_linear_8_2334)"/>
</g>
<defs>
<linearGradient id="paint0_linear_8_2334" x1="12" y1="0" x2="12" y2="24" gradientUnits="userSpaceOnUse">
<stop stop-color="#F8C958"/>
<stop offset="1" stop-color="#E0970E"/>
</linearGradient>
<linearGradient id="paint1_linear_8_2334" x1="12" y1="6" x2="12" y2="18" gradientUnits="userSpaceOnUse">
<stop stop-color="#F8C958"/>
<stop offset="1" stop-color="#E0970E"/>
</linearGradient>
</defs>
</svg>
