<svg width="25" height="24" viewBox="0 0 25 24" fill="none" xmlns="http://www.w3.org/2000/svg">
<rect x="0.441162" width="23.6765" height="23.6765" rx="11.8382" fill="url(#paint0_linear_8_2294)"/>
<g clip-path="url(#clip0_8_2294)">
<path d="M9.98394 17.937C15.0896 17.937 17.8826 13.7065 17.8826 10.0442C17.8826 9.92586 17.8826 9.80578 17.8775 9.6874C18.4213 9.29377 18.8906 8.80643 19.2634 8.24821C18.7555 8.47216 18.2172 8.61976 17.6661 8.68622C18.2466 8.33923 18.6814 7.79326 18.8897 7.14979C18.3443 7.47291 17.7473 7.69974 17.1249 7.82034C16.7065 7.37474 16.1528 7.07954 15.5497 6.98047C14.9465 6.8814 14.3275 6.98399 13.7885 7.27235C13.2496 7.56071 12.8207 8.01874 12.5684 8.5755C12.3161 9.13226 12.2545 9.75668 12.393 10.352C11.2893 10.2967 10.2096 10.01 9.22379 9.51045C8.23802 9.01094 7.36826 8.3098 6.67092 7.45251C6.31691 8.06394 6.20887 8.78719 6.36875 9.47538C6.52862 10.1636 6.94443 10.7651 7.53173 11.1579C7.09163 11.1429 6.66121 11.0247 6.27519 10.8129V10.8509C6.27594 11.4914 6.49783 12.1121 6.90335 12.6079C7.30887 13.1037 7.87313 13.4442 8.50077 13.572C8.26254 13.6377 8.01645 13.6704 7.76934 13.6693C7.59513 13.6698 7.42128 13.6537 7.25015 13.6211C7.42754 14.1724 7.77295 14.6545 8.238 14.9998C8.70306 15.3451 9.26445 15.5362 9.84357 15.5465C8.85977 16.3192 7.64453 16.7383 6.39357 16.7362C6.17314 16.7372 5.95287 16.7244 5.73401 16.6982C7.00367 17.5076 8.47819 17.9374 9.98394 17.937Z" fill="black"/>
</g>
<defs>
<linearGradient id="paint0_linear_8_2294" x1="12.2794" y1="0" x2="12.2794" y2="23.6765" gradientUnits="userSpaceOnUse">
<stop stop-color="#F8C958"/>
<stop offset="1" stop-color="#E0970E"/>
</linearGradient>
<clipPath id="clip0_8_2294">
<rect width="13.5294" height="13.5294" fill="white" transform="translate(5.73401 5.2532)"/>
</clipPath>
</defs>
</svg>
