<svg width="25" height="24" viewBox="0 0 25 24" fill="none" xmlns="http://www.w3.org/2000/svg">
<rect x="0.882324" width="23.6765" height="23.6765" rx="11.8382" fill="url(#paint0_linear_8_2297)"/>
<path d="M8.94254 9.31083C9.62374 9.31083 10.176 8.7586 10.176 8.07739C10.176 7.39619 9.62374 6.84396 8.94254 6.84396C8.26133 6.84396 7.70911 7.39619 7.70911 8.07739C7.70911 8.7586 8.26133 9.31083 8.94254 9.31083Z" fill="black"/>
<path d="M11.3407 10.2448V17.0879H13.4654V13.7039C13.4654 12.8109 13.6334 11.9462 14.7405 11.9462C15.8325 11.9462 15.846 12.9671 15.846 13.7602V17.0885H17.9718V13.3357C17.9718 11.4924 17.5749 10.0757 15.4204 10.0757C14.3859 10.0757 13.6926 10.6434 13.409 11.1806H13.3803V10.2448H11.3407ZM7.8783 10.2448H10.0064V17.0879H7.8783V10.2448Z" fill="black"/>
<defs>
<linearGradient id="paint0_linear_8_2297" x1="12.7206" y1="0" x2="12.7206" y2="23.6765" gradientUnits="userSpaceOnUse">
<stop stop-color="#F8C958"/>
<stop offset="1" stop-color="#E0970E"/>
</linearGradient>
</defs>
</svg>
