<svg width="24" height="24" viewBox="0 0 24 24" fill="none" xmlns="http://www.w3.org/2000/svg">
<rect x="0.323486" width="23.6765" height="23.6765" rx="11.8382" fill="url(#paint0_linear_8_2301)"/>
<g clip-path="url(#clip0_8_2301)">
<path fill-rule="evenodd" clip-rule="evenodd" d="M9.74043 5.85392C10.4017 5.82348 10.6125 5.81671 12.2969 5.81671C13.9813 5.81671 14.1922 5.82404 14.8529 5.85392C15.5135 5.88379 15.9645 5.98921 16.3591 6.14198C16.7723 6.29813 17.1472 6.54223 17.4573 6.85791C17.773 7.1674 18.0165 7.54171 18.1721 7.95549C18.3254 8.35009 18.4303 8.80107 18.4607 9.46063C18.4911 10.123 18.4979 10.3338 18.4979 12.0177C18.4979 13.7021 18.4906 13.9129 18.4607 14.5742C18.4308 15.2337 18.3254 15.6847 18.1721 16.0793C18.0165 16.4932 17.7726 16.8681 17.4573 17.178C17.1472 17.4937 16.7723 17.7373 16.3591 17.8928C15.9645 18.0462 15.5135 18.151 14.854 18.1815C14.1922 18.2119 13.9813 18.2187 12.2969 18.2187C10.6125 18.2187 10.4017 18.2113 9.74043 18.1815C9.08087 18.1516 8.62989 18.0462 8.23529 17.8928C7.82147 17.7372 7.44653 17.4933 7.13658 17.178C6.82111 16.8684 6.57698 16.4936 6.42122 16.0799C6.26845 15.6853 6.16359 15.2343 6.13315 14.5748C6.10271 13.9124 6.09595 13.7015 6.09595 12.0177C6.09595 10.3333 6.10328 10.1224 6.13315 9.46176C6.16303 8.80107 6.26845 8.35009 6.42122 7.95549C6.57721 7.54176 6.82153 7.16701 7.13715 6.85735C7.44666 6.54194 7.82121 6.29782 8.23472 6.14198C8.62933 5.98921 9.08031 5.88436 9.73987 5.85392H9.74043ZM14.8027 6.97009C14.1488 6.94022 13.9526 6.93402 12.2969 6.93402C10.6413 6.93402 10.4451 6.94022 9.79117 6.97009C9.18629 6.99772 8.8582 7.09862 8.63948 7.18375C8.35029 7.29649 8.1434 7.43009 7.92636 7.64713C7.72063 7.84728 7.5623 8.09094 7.46298 8.36024C7.37786 8.57897 7.27695 8.90705 7.24933 9.51193C7.21945 10.1659 7.21325 10.362 7.21325 12.0177C7.21325 13.6734 7.21945 13.8695 7.24933 14.5235C7.27695 15.1283 7.37786 15.4564 7.46298 15.6751C7.5622 15.944 7.7206 16.1881 7.92636 16.3883C8.12649 16.594 8.37058 16.7524 8.63948 16.8516C8.8582 16.9368 9.18629 17.0377 9.79117 17.0653C10.4451 17.0952 10.6407 17.1014 12.2969 17.1014C13.9532 17.1014 14.1488 17.0952 14.8027 17.0653C15.4076 17.0377 15.7357 16.9368 15.9544 16.8516C16.2436 16.7389 16.4505 16.6053 16.6675 16.3883C16.8733 16.1881 17.0317 15.944 17.1309 15.6751C17.216 15.4564 17.3169 15.1283 17.3445 14.5235C17.3744 13.8695 17.3806 13.6734 17.3806 12.0177C17.3806 10.362 17.3744 10.1659 17.3445 9.51193C17.3169 8.90705 17.216 8.57897 17.1309 8.36024C17.0181 8.07105 16.8845 7.86416 16.6675 7.64713C16.4673 7.44141 16.2237 7.28308 15.9544 7.18375C15.7357 7.09862 15.4076 6.99772 14.8027 6.97009ZM11.5049 13.9293C11.9472 14.1134 12.4398 14.1383 12.8984 13.9996C13.357 13.8609 13.7533 13.5673 14.0195 13.169C14.2857 12.7706 14.4053 12.2922 14.3579 11.8154C14.3106 11.3386 14.0992 10.893 13.7598 10.5548C13.5435 10.3386 13.2819 10.1731 12.9939 10.0701C12.7059 9.96713 12.3986 9.92929 12.0943 9.95931C11.7899 9.98934 11.496 10.0865 11.2336 10.2437C10.9713 10.401 10.7471 10.6144 10.5772 10.8687C10.4072 11.123 10.2958 11.4119 10.2509 11.7144C10.206 12.0169 10.2287 12.3257 10.3174 12.6184C10.4062 12.9111 10.5587 13.1804 10.764 13.4071C10.9693 13.6338 11.2224 13.8121 11.5049 13.9293ZM10.0432 9.76392C10.3391 9.46795 10.6905 9.23317 11.0772 9.07299C11.4639 8.91282 11.8784 8.83037 12.2969 8.83037C12.7155 8.83037 13.13 8.91282 13.5167 9.07299C13.9034 9.23317 14.2547 9.46795 14.5507 9.76392C14.8467 10.0599 15.0814 10.4113 15.2416 10.798C15.4018 11.1847 15.4842 11.5991 15.4842 12.0177C15.4842 12.4363 15.4018 12.8507 15.2416 13.2374C15.0814 13.6241 14.8467 13.9755 14.5507 14.2715C13.953 14.8692 13.1423 15.205 12.2969 15.205C11.4516 15.205 10.6409 14.8692 10.0432 14.2715C9.44542 13.6737 9.10961 12.863 9.10961 12.0177C9.10961 11.1724 9.44542 10.3617 10.0432 9.76392ZM16.1911 9.30505C16.2645 9.23586 16.3232 9.15266 16.3638 9.06037C16.4044 8.96809 16.4261 8.86859 16.4276 8.76778C16.4291 8.66696 16.4103 8.56687 16.3724 8.47344C16.3345 8.38001 16.2782 8.29514 16.2069 8.22384C16.1356 8.15255 16.0507 8.09628 15.9573 8.05838C15.8639 8.02047 15.7638 8.0017 15.663 8.00317C15.5622 8.00464 15.4627 8.02632 15.3704 8.06693C15.2781 8.10754 15.1949 8.16626 15.1257 8.2396C14.9911 8.38224 14.9175 8.57171 14.9203 8.76778C14.9232 8.96384 15.0024 9.15108 15.141 9.28974C15.2797 9.42839 15.4669 9.50755 15.663 9.51041C15.859 9.51327 16.0485 9.4396 16.1911 9.30505Z" fill="black"/>
</g>
<defs>
<linearGradient id="paint0_linear_8_2301" x1="12.1617" y1="0" x2="12.1617" y2="23.6765" gradientUnits="userSpaceOnUse">
<stop stop-color="#F8C958"/>
<stop offset="1" stop-color="#E0970E"/>
</linearGradient>
<clipPath id="clip0_8_2301">
<rect width="13.5294" height="13.5294" fill="white" transform="translate(5.53186 5.2532)"/>
</clipPath>
</defs>
</svg>
