<svg width="33" height="32" viewBox="0 0 33 32" fill="none" xmlns="http://www.w3.org/2000/svg">
<mask id="mask0_8_2310" style="mask-type:alpha" maskUnits="userSpaceOnUse" x="0" y="0" width="33" height="32">
<rect x="0.983765" width="32" height="31.7687" fill="#D9D9D9"/>
</mask>
<g mask="url(#mask0_8_2310)">
<path d="M16.6504 14.2098C17.3838 14.2098 18.0118 13.9509 18.5344 13.433C19.0562 12.9161 19.3171 12.2944 19.3171 11.5678C19.3171 10.8413 19.0562 10.2191 18.5344 9.70128C18.0118 9.18434 17.3838 8.92587 16.6504 8.92587C15.9171 8.92587 15.2895 9.18434 14.7678 9.70128C14.2451 10.2191 13.9838 10.8413 13.9838 11.5678C13.9838 12.2944 14.2451 12.9161 14.7678 13.433C15.2895 13.9509 15.9171 14.2098 16.6504 14.2098ZM16.6504 27.4196C13.0727 24.4033 10.4007 21.6015 8.63443 19.0142C6.86732 16.4277 5.98376 14.0337 5.98376 11.832C5.98376 8.52958 7.05621 5.89863 9.2011 3.93918C11.3451 1.97973 13.8282 1 16.6504 1C19.4727 1 21.9558 1.97973 24.0998 3.93918C26.2447 5.89863 27.3171 8.52958 27.3171 11.832C27.3171 14.0337 26.434 16.4277 24.6678 19.0142C22.9007 21.6015 20.2282 24.4033 16.6504 27.4196Z" fill="url(#paint0_linear_8_2310)"/>
</g>
<defs>
<linearGradient id="paint0_linear_8_2310" x1="16.6504" y1="1" x2="16.6504" y2="27.4196" gradientUnits="userSpaceOnUse">
<stop stop-color="#F8C958"/>
<stop offset="1" stop-color="#E0970E"/>
</linearGradient>
</defs>
</svg>
