<svg width="25" height="18" viewBox="0 0 25 18" fill="none" xmlns="http://www.w3.org/2000/svg">
<path d="M23.8566 0H1.82879C1.36017 0 0.981567 0.365625 0.981567 0.818182V17.1818C0.981567 17.6344 1.36017 18 1.82879 18H23.8566C24.3252 18 24.7038 17.6344 24.7038 17.1818V0.818182C24.7038 0.365625 24.3252 0 23.8566 0ZM21.7173 2.78437L13.3643 9.06136C13.1577 9.21733 12.8692 9.21733 12.6626 9.06136L4.30692 2.78437C4.27542 2.7609 4.25231 2.7285 4.24084 2.6917C4.22938 2.65491 4.23011 2.61557 4.24296 2.57921C4.2558 2.54284 4.28011 2.51127 4.31247 2.48891C4.34483 2.46656 4.38362 2.45454 4.42341 2.45455H21.6008C21.6406 2.45454 21.6794 2.46656 21.7118 2.48891C21.7441 2.51127 21.7684 2.54284 21.7813 2.57921C21.7941 2.61557 21.7949 2.65491 21.7834 2.6917C21.7719 2.7285 21.7488 2.7609 21.7173 2.78437Z" fill="#E0970E"/>
</svg>
